<svg
                            className="icon"
                            viewBox="0 0 1024 1024"
                            version="1.1"
                            xmlns="http://www.w3.org/2000/svg"
                          >
                            <path
                              d="M581.063111 113.777778a35.271111 35.271111 0 0 0-19.000889 5.745778l-230.286222 159.857777A28.103111 28.103111 0 0 1 315.676444 284.444444H113.550222A56.775111 56.775111 0 0 0 56.888889 341.333333v341.333334c0 31.402667 25.372444 56.888889 56.661333 56.888889h202.126222c5.802667 0 11.377778 1.763556 16.099556 5.063111l230.286222 159.857777a35.271111 35.271111 0 0 0 19.000889 5.745778c22.300444 0 42.496-22.755556 42.496-53.987555V167.822222c0-31.288889-20.195556-53.987556-42.496-53.987555zM510.236444 730.112l-135.793777-94.264889a56.661333 56.661333 0 0 0-32.199111-10.126222H198.599111a28.444444 28.444444 0 0 1-28.330667-28.444445v-170.666666a28.444444 28.444444 0 0 1 28.330667-28.444445h143.644445c11.491556 0 22.755556-3.527111 32.199111-10.126222l135.793777-94.264889v436.280889zM963.356444 500.565333c-4.892444-99.441778-86.129778-170.154667-142.620444-207.587555-26.737778-17.749333-62.236444-6.940444-75.377778 23.210666l-2.161778 4.892445a55.352889 55.352889 0 0 0 19.114667 67.925333c40.163556 26.908444 90.225778 70.940444 92.387556 117.475556 1.820444 38.456889-31.459556 83.512889-94.606223 129.137778a56.149333 56.149333 0 0 0-16.213333 72.533333l2.389333 4.266667c15.132444 27.022222 49.265778 35.498667 73.955556 17.749333 98.986667-71.168 147.114667-148.252444 143.132444-229.660445z"
                              fill="#5490ff"
                            ></path>
                          </svg>