<svg t="1697614441140" class="icon" viewBox="0 0 1024 1024" version="1.1" xmlns="http://www.w3.org/2000/svg" p-id="10705" width="32" height="32"><path d="M490.666667 117.333333a32 32 0 0 1 43.221333-29.952l272.128 102.016a138.666667 138.666667 0 0 1 90.026667 129.877334v139.434666a32 32 0 0 1-43.264 29.994667L554.666667 376.917333V746.666667a32.042667 32.042667 0 0 1-0.725334 6.826666c0.469333 4.736 0.725333 9.6 0.725334 14.506667 0 96.426667-97.109333 170.666667-213.333334 170.666667s-213.333333-74.24-213.333333-170.666667 97.109333-170.666667 213.333333-170.666667c57.685333 0 110.677333 18.304 149.418667 48.512L490.666667 117.333333z" fill="#ffffff" p-id="10706"></path></svg>